<?xml version="1.0" standalone="no"?>
<!DOCTYPE svg PUBLIC "-//W3C//DTD SVG 20010904//EN"
 "http://www.w3.org/TR/2001/REC-SVG-20010904/DTD/svg10.dtd">
<svg version="1.0" xmlns="http://www.w3.org/2000/svg"
 width="700.000000pt" height="700.000000pt" viewBox="0 0 700.000000 700.000000"
 preserveAspectRatio="xMidYMid meet">
<metadata>
Created by potrace 1.14, written by Peter Selinger 2001-2017
</metadata>
<g transform="translate(0.000000,700.000000) scale(0.100000,-0.100000)"
fill="#000000" stroke="none">
<path d="M2145 6120 c-73 -16 -144 -78 -165 -143 -25 -79 -11 -125 119 -384
67 -133 132 -255 146 -271 61 -73 189 -91 270 -40 77 49 109 105 108 190 0 43
-16 82 -122 296 -68 136 -134 261 -147 278 -42 56 -137 90 -209 74z"/>
<path d="M4773 6120 c-69 -10 -122 -56 -173 -152 -95 -177 -221 -445 -224
-477 -10 -95 66 -207 156 -232 86 -23 188 11 236 78 11 15 74 138 141 272 104
211 121 252 121 293 0 141 -116 239 -257 218z"/>
<path d="M3285 5020 c-27 -4 -72 -10 -100 -14 -78 -11 -272 -61 -365 -96 -263
-97 -527 -268 -721 -467 -289 -298 -455 -618 -536 -1033 -23 -118 -26 -162
-27 -350 l-1 -215 -575 -1 c-568 0 -575 0 -616 -22 -85 -44 -129 -123 -121
-216 9 -94 70 -167 159 -190 32 -8 890 -11 3134 -10 3076 0 3089 0 3134 20
180 81 169 341 -17 403 -42 14 -120 16 -609 16 l-562 0 3 165 c3 181 -5 281
-36 440 -83 423 -307 808 -639 1097 -109 95 -96 85 -208 159 -243 162 -524
266 -837 309 -98 14 -380 17 -460 5z"/>
<path d="M620 4590 c-103 -18 -180 -109 -182 -215 -1 -58 41 -143 84 -172 18
-12 142 -76 276 -143 208 -104 249 -121 291 -122 93 0 183 63 211 148 20 58 7
147 -26 192 -16 20 -35 43 -44 49 -35 28 -503 256 -538 262 -20 4 -53 4 -72 1z"/>
<path d="M6308 4590 c-49 -9 -514 -242 -552 -276 -89 -83 -86 -241 5 -318 52
-44 96 -59 159 -54 46 4 95 24 295 124 132 65 255 132 274 149 89 78 95 222
13 308 -49 52 -126 78 -194 67z"/>
<path d="M1224 1731 c-50 -23 -109 -90 -121 -139 -21 -82 4 -170 65 -224 67
-59 -86 -56 2352 -54 2192 1 2236 1 2265 20 99 64 136 145 113 249 -13 63 -84
140 -143 156 -28 8 -681 11 -2265 11 -2138 -1 -2227 -1 -2266 -19z"/>
</g>
</svg>
